PathFileType	4	(X/Y/Z)	TVC_41_Cal_03_0_static_RCNL2025.trc
DataRate	CameraRate	NumFrames	NumMarkers	Units	OrigDataRate	OrigDataStartFrame	OrigNumFrames
100	100	7	27	mm	100	205	234
Frame#	Time	R_Shoulder			L_Shoulder			C7			J_Notch			R_Elbow			L_Elbow			R_Wrist			L_Wrist			R_Asis			L_Asis			R_Psis			L_Psis			Sacral			Thoracic			Sternum			R_Thigh_Lateral			R_Knee_Lateral			R_Shank_Lateral			R_Ankle_Lateral			R_Heel			R_Toe			L_Thigh_Lateral			L_Knee_Lateral			L_Shank_Lateral			L_Ankle_Lateral			L_Heel			L_Toe		
		X1	Y1	Z1	X2	Y2	Z2	X3	Y3	Z3	X4	Y4	Z4	X5	Y5	Z5	X6	Y6	Z6	X7	Y7	Z7	X8	Y8	Z8	X9	Y9	Z9	X10	Y10	Z10	X11	Y11	Z11	X12	Y12	Z12	X13	Y13	Z13	X14	Y14	Z14	X15	Y15	Z15	X16	Y16	Z16	X17	Y17	Z17	X18	Y18	Z18	X19	Y19	Z19	X20	Y20	Z20	X21	Y21	Z21	X22	Y22	Z22	X23	Y23	Z23	X24	Y24	Z24	X25	Y25	Z25	X26	Y26	Z26	X27	Y27	Z27
205	2.04000000	-274.990570	1276.588013	-72.032974	-283.740723	1248.441650	-407.565094	-351.770111	1310.508301	-237.338638	-216.854355	1220.730591	-232.657944	-242.579041	985.983765	-15.215149	-296.968170	950.304565	-446.856537	-185.836014	782.636841	-28.400531	-223.514229	756.852600	-455.170364	-219.988586	859.336792	-89.815987	-221.752182	859.323181	-334.504700	-355.251678	882.322510	-155.627045	-392.726166	884.332703	-244.131348	-373.988922	883.327606	-199.879196	-357.964966	1014.248657	-218.850571	-166.990250	1045.054321	-231.251419	-267.678253	640.613831	3.660229	-264.691376	414.494690	-59.193913	-295.467285	286.737885	-2.108530	-282.028717	73.618469	-65.256233	-317.832397	45.890537	-121.449165	-172.740509	45.485058	-40.236919	-315.254395	593.046692	-418.650391	-308.548126	409.108948	-340.896271	-314.123260	269.510620	-380.222198	-338.418091	66.635986	-300.268494	-376.399567	44.107246	-258.485840	-212.427017	39.245705	-289.387268
206	2.05000000	-274.949677	1276.624756	-72.012962	-283.783905	1248.385376	-407.637207	-351.759857	1310.505371	-237.340027	-216.860397	1220.694214	-232.727097	-242.538162	985.947021	-15.257762	-296.933350	950.210938	-446.828400	-185.871841	782.551208	-28.413675	-223.500977	756.880127	-455.090576	-219.948746	859.317322	-89.886734	-221.880585	859.284058	-334.547028	-355.332214	882.429810	-155.752502	-392.739502	884.353943	-244.091599	-374.035858	883.391876	-199.922050	-358.015961	1014.262451	-218.903076	-167.016800	1045.034912	-231.213760	-267.658875	640.660217	3.607434	-264.686859	414.445557	-59.209530	-295.479614	286.754364	-2.124205	-282.058441	73.604355	-65.228363	-317.828125	45.886791	-121.454147	-172.761200	45.507866	-40.220863	-315.255493	593.170593	-418.573486	-308.575439	409.088287	-340.899628	-314.162048	269.346649	-379.750977	-338.489685	66.743027	-300.257202	-376.523376	44.223869	-258.353210	-212.416290	39.251274	-289.450623
207	2.06000000	-275.067291	1276.584839	-72.018028	-283.740845	1248.449341	-407.660034	-351.766479	1310.490967	-237.336594	-216.828629	1220.686890	-232.781998	-242.492035	985.869019	-15.204609	-296.964935	950.130127	-446.907410	-185.804260	782.581604	-28.515890	-223.488091	756.851929	-455.050430	-219.902512	859.251282	-89.721382	-221.903244	859.219543	-334.614075	-355.229919	882.463135	-155.811920	-392.795746	884.331299	-244.161041	-374.012833	883.397217	-199.986481	-357.940979	1014.181641	-218.993362	-167.056839	1044.924805	-231.250381	-267.804565	640.482056	3.586087	-264.692505	414.418427	-59.234604	-295.427734	287.017426	-1.965693	-282.024780	73.582756	-65.229172	-317.869965	45.950264	-121.399315	-172.802673	45.592621	-40.361828	-315.323242	593.061401	-418.611145	-308.583771	409.068329	-340.901825	-314.081757	269.511353	-380.088989	-338.308411	66.384834	-300.017059	-376.120941	43.895634	-258.374695	-212.426437	39.230892	-289.473785
208	2.07000000	-275.034424	1276.584106	-72.080765	-283.852997	1248.433228	-407.682281	-351.860046	1310.517944	-237.383209	-216.909470	1220.610962	-232.631287	-242.459747	985.942566	-15.134730	-296.949310	950.150635	-446.818939	-185.876343	782.595520	-28.583753	-223.507195	756.842499	-455.000183	-219.930145	859.219666	-89.823357	-221.946762	859.098206	-334.684906	-355.283630	882.379089	-155.687851	-392.781128	884.389099	-244.205612	-374.032379	883.384094	-199.946732	-358.000214	1014.255554	-218.966751	-167.165039	1044.901123	-231.311142	-267.734039	640.643494	3.518168	-264.720123	414.434784	-59.220978	-295.470459	287.157043	-1.904114	-281.997833	73.655540	-65.235291	-317.883606	45.941319	-121.389442	-172.743835	45.571503	-40.293743	-315.306458	593.052307	-418.679321	-308.681488	409.108551	-340.928986	-314.196991	269.423584	-379.944061	-338.457153	66.670830	-300.175690	-376.478180	44.090748	-258.379181	-212.455093	39.240864	-289.399933
209	2.08000000	-275.011230	1276.583008	-72.112457	-283.820374	1248.420898	-407.758453	-351.763916	1310.522339	-237.470032	-216.789658	1220.598145	-232.919815	-242.415192	985.953125	-15.216766	-296.988586	950.080811	-446.812653	-185.913857	782.530396	-28.585048	-223.549286	756.807129	-454.932709	-219.880508	859.261902	-89.852264	-221.902725	859.007629	-334.764465	-355.219604	882.383057	-155.763229	-392.823181	884.396240	-244.290405	-374.021393	883.389648	-200.026817	-357.989685	1014.244629	-219.079056	-167.194626	1044.934204	-231.294815	-267.748077	640.565247	3.536993	-264.816193	414.388580	-59.309605	-295.553375	286.906342	-2.052646	-282.083618	73.619339	-65.270256	-317.874054	45.936546	-121.377083	-172.778046	45.485855	-40.252556	-315.251404	593.130005	-418.742889	-308.708282	409.053741	-340.950684	-314.226532	269.364410	-379.826294	-338.460907	66.634827	-300.240631	-376.439148	44.084099	-258.440918	-212.354523	39.186272	-289.382843
210	2.09000000	-275.061554	1276.518311	-72.141991	-283.800049	1248.464111	-407.846832	-351.809113	1310.461060	-237.447220	-216.763565	1220.607056	-232.901443	-242.500519	985.953613	-15.213809	-297.014954	950.158752	-446.780823	-185.818054	782.616394	-28.699514	-223.636513	756.783722	-454.892899	-219.982849	859.198669	-89.895348	-221.900711	859.103394	-334.708649	-355.312866	882.290283	-155.767914	-392.827515	884.395386	-244.295670	-374.070190	883.342834	-200.031792	-358.053253	1014.263489	-219.054733	-167.197281	1044.882568	-231.266373	-267.846130	640.559265	3.569624	-264.842346	414.429688	-59.344448	-295.532318	286.788940	-2.133875	-282.056976	73.609932	-65.244164	-317.862396	45.894054	-121.399178	-172.746399	45.582256	-40.274090	-315.288849	592.950012	-418.776398	-308.775879	409.049988	-340.967346	-314.203308	269.586548	-380.245483	-338.461121	66.602371	-300.173309	-376.512451	44.205971	-258.414673	-212.424866	39.204010	-289.454010
211	2.10000000	-275.046478	1276.487427	-72.181175	-283.800476	1248.374756	-407.800812	-351.789185	1310.441406	-237.472122	-216.804764	1220.636353	-232.819336	-242.571106	985.800476	-15.232134	-297.053619	950.107971	-446.837555	-185.249443	782.516357	-29.296006	-223.712601	756.762482	-454.875381	-219.983688	859.220642	-89.916016	-221.931747	859.187500	-334.813995	-355.340363	882.286865	-155.734375	-392.794952	884.358337	-244.326324	-374.067657	883.322601	-200.030350	-357.961243	1014.249817	-219.098480	-167.290665	1044.920654	-231.334686	-267.857391	640.584290	3.539058	-264.823029	414.452179	-59.362514	-295.451172	287.047607	-1.987652	-281.990631	73.624466	-65.254440	-317.854126	45.909534	-121.422729	-172.843781	45.557125	-40.214355	-315.292175	592.935364	-418.734222	-308.726898	409.069305	-340.991180	-314.276978	269.390991	-379.942291	-338.460785	66.687904	-300.220673	-376.555176	44.268967	-258.377930	-212.392776	39.212135	-289.402985
